<svg width="16" height="16" viewBox="0 0 16 16" fill="none" xmlns="http://www.w3.org/2000/svg">
<path d="M4.00049 13.6002H2.3999V11.9996H3.99951V10.4H5.6001V11.9996H4.00049V13.6002ZM13.6001 13.6002H12.0005V11.9996H13.6001V13.6002ZM11.9995 11.9996H10.3999V10.4H11.9995V11.9996ZM7.19971 10.4H5.6001V8.80042H7.19971V10.4ZM10.3999 10.4H8.80029V8.80042H10.3999V10.4ZM8.80029 8.80042H7.19971V7.19983H8.80029V8.80042ZM7.19971 7.19983H5.6001V5.60022H7.19971V7.19983ZM10.3999 7.19983H8.80029V5.60022H10.3999V7.19983ZM5.6001 5.60022H4.00049V3.99963H5.6001V5.60022ZM12.0005 5.60022H10.3999V3.99963H12.0005V5.60022ZM3.99951 3.99963H2.3999V2.40002H3.99951V3.99963ZM13.6001 3.99963H12.0005V2.40002H13.6001V3.99963Z" fill="white"/>
</svg>
