<svg width="24" height="24" viewBox="0 0 24 24" fill="none" xmlns="http://www.w3.org/2000/svg">
<g clip-path="url(#clip0_104_562)">
<path d="M13 24H11V20H13V24ZM4 22H2V20H4V22ZM22 22H20V20H22V22ZM6 20H4V18H6V20ZM20 20H18V18H20V20ZM16 18H8V16H16V18ZM8 16H6V8H8V16ZM18 16H16V8H18V16ZM4 13H0V11H4V13ZM24 13H20V11H24V13ZM16 8H8V6H16V8ZM6 6H4V4H6V6ZM20 6H18V4H20V6ZM4 4H2V2H4V4ZM13 4H11V0H13V4ZM22 4H20V2H22V4Z" fill="currentColor"/>
</g>
<defs>
<clipPath id="clip0_104_562">
<rect width="24" height="24" fill="currentColor"/>
</clipPath>
</defs>
</svg>
